<svg width="20" height="24" viewBox="0 0 20 24" fill="none" xmlns="http://www.w3.org/2000/svg">
<path d="M19.3691 5.25594L14.9941 0.880938C14.9127 0.799708 14.8162 0.735295 14.71 0.691381C14.6038 0.647466 14.4899 0.62491 14.375 0.625H5.625C5.16087 0.625 4.71575 0.809375 4.38756 1.13756C4.05937 1.46575 3.875 1.91087 3.875 2.375V4.125H2.125C1.66087 4.125 1.21575 4.30937 0.887563 4.63756C0.559374 4.96575 0.375 5.41087 0.375 5.875V21.625C0.375 22.0891 0.559374 22.5342 0.887563 22.8624C1.21575 23.1906 1.66087 23.375 2.125 23.375H14.375C14.8391 23.375 15.2842 23.1906 15.6124 22.8624C15.9406 22.5342 16.125 22.0891 16.125 21.625V19.875H17.875C18.3391 19.875 18.7842 19.6906 19.1124 19.3624C19.4406 19.0342 19.625 18.5891 19.625 18.125V5.875C19.6251 5.76006 19.6025 5.64623 19.5586 5.54001C19.5147 5.43379 19.4503 5.33726 19.3691 5.25594ZM14.375 21.625H2.125V5.875H10.513L14.375 9.73703V18.9825C14.375 18.9891 14.375 18.9945 14.375 19C14.375 19.0055 14.375 19.0109 14.375 19.0175V21.625ZM17.875 18.125H16.125V9.375C16.1251 9.26006 16.1025 9.14623 16.0586 9.04001C16.0147 8.93379 15.9503 8.83726 15.8691 8.75594L11.4941 4.38094C11.4127 4.29971 11.3162 4.2353 11.21 4.19138C11.1038 4.14747 10.9899 4.12491 10.875 4.125H5.625V2.375H14.013L17.875 6.23703V18.125ZM11.75 14.625C11.75 14.8571 11.6578 15.0796 11.4937 15.2437C11.3296 15.4078 11.1071 15.5 10.875 15.5H5.625C5.39294 15.5 5.17038 15.4078 5.00628 15.2437C4.84219 15.0796 4.75 14.8571 4.75 14.625C4.75 14.3929 4.84219 14.1704 5.00628 14.0063C5.17038 13.8422 5.39294 13.75 5.625 13.75H10.875C11.1071 13.75 11.3296 13.8422 11.4937 14.0063C11.6578 14.1704 11.75 14.3929 11.75 14.625ZM11.75 18.125C11.75 18.3571 11.6578 18.5796 11.4937 18.7437C11.3296 18.9078 11.1071 19 10.875 19H5.625C5.39294 19 5.17038 18.9078 5.00628 18.7437C4.84219 18.5796 4.75 18.3571 4.75 18.125C4.75 17.8929 4.84219 17.6704 5.00628 17.5063C5.17038 17.3422 5.39294 17.25 5.625 17.25H10.875C11.1071 17.25 11.3296 17.3422 11.4937 17.5063C11.6578 17.6704 11.75 17.8929 11.75 18.125Z" fill="white"/>
</svg>
