<svg width="23" height="20" viewBox="0 0 23 20" fill="none" xmlns="http://www.w3.org/2000/svg">
<path d="M1.24984 19.75C0.962519 19.75 0.686969 19.6359 0.483805 19.4327C0.28064 19.2295 0.166504 18.954 0.166504 18.6667V1.33333C0.166504 1.04602 0.28064 0.770465 0.483805 0.567301C0.686969 0.364137 0.962519 0.25 1.24984 0.25H9.28167L11.4483 2.41667H19.6665C19.9538 2.41667 20.2294 2.5308 20.4325 2.73397C20.6357 2.93713 20.7498 3.21268 20.7498 3.5V6.75H18.5832V4.58333H10.5513L8.38467 2.41667H2.33317V15.4145L3.95817 8.91667H22.3748L19.8723 18.9299C19.8137 19.1642 19.6784 19.3721 19.488 19.5207C19.2976 19.6693 19.063 19.75 18.8215 19.75H1.24984ZM19.5993 11.0833H5.65034L4.02534 17.5833H17.9743L19.5993 11.0833Z" fill="white"/>
</svg>
