<svg width="22" height="22" viewBox="0 0 22 22" fill="none" xmlns="http://www.w3.org/2000/svg">
<path d="M20.0215 0.150391H2.52148C2.05736 0.150391 1.61224 0.334765 1.28405 0.662954C0.955859 0.991142 0.771484 1.43626 0.771484 1.90039V19.4004C0.771484 19.8645 0.955859 20.3096 1.28405 20.6378C1.61224 20.966 2.05736 21.1504 2.52148 21.1504H20.0215C20.4856 21.1504 20.9307 20.966 21.2589 20.6378C21.5871 20.3096 21.7715 19.8645 21.7715 19.4004V1.90039C21.7715 1.43626 21.5871 0.991142 21.2589 0.662954C20.9307 0.334765 20.4856 0.150391 20.0215 0.150391ZM18.2715 8.02539H20.0215V13.2754H18.2715V8.02539ZM20.0215 6.27539H18.2715V1.90039H20.0215V6.27539ZM2.52148 1.90039H16.5215V19.4004H2.52148V1.90039ZM20.0215 19.4004H18.2715V15.0254H20.0215V19.4004ZM13.8691 14.8066C13.586 13.7494 12.9146 12.8379 11.989 12.2538C12.4806 11.7652 12.816 11.1416 12.9527 10.4621C13.0894 9.78258 13.0213 9.07778 12.7571 8.43702C12.4928 7.79627 12.0442 7.24841 11.4681 6.86291C10.8921 6.4774 10.2146 6.2716 9.52148 6.2716C8.82836 6.2716 8.15085 6.4774 7.57482 6.86291C6.9988 7.24841 6.55021 7.79627 6.28592 8.43702C6.02162 9.07778 5.95353 9.78258 6.09027 10.4621C6.22701 11.1416 6.56242 11.7652 7.05398 12.2538C6.12895 12.8385 5.45777 13.7498 5.17383 14.8066C5.11581 15.0315 5.14948 15.2701 5.26742 15.4701C5.38536 15.6701 5.57792 15.815 5.80273 15.873C6.02755 15.9311 6.2662 15.8974 6.46619 15.7795C6.66618 15.6615 6.81112 15.469 6.86914 15.2441C7.15789 14.123 8.29758 13.2754 9.52148 13.2754C10.7454 13.2754 11.8862 14.1209 12.1738 15.2441C12.2318 15.469 12.3768 15.6615 12.5768 15.7795C12.7768 15.8974 13.0154 15.9311 13.2402 15.873C13.465 15.815 13.6576 15.6701 13.7755 15.4701C13.8935 15.2701 13.9272 15.0315 13.8691 14.8066ZM7.77148 9.77539C7.77148 9.42927 7.87412 9.09093 8.06641 8.80314C8.25871 8.51536 8.53202 8.29105 8.85179 8.1586C9.17156 8.02615 9.52343 7.99149 9.86289 8.05902C10.2024 8.12654 10.5142 8.29321 10.7589 8.53795C11.0037 8.7827 11.1703 9.09452 11.2379 9.43398C11.3054 9.77345 11.2707 10.1253 11.1383 10.4451C11.0058 10.7649 10.7815 11.0382 10.4937 11.2305C10.2059 11.4228 9.8676 11.5254 9.52148 11.5254C9.05736 11.5254 8.61224 11.341 8.28405 11.0128C7.95586 10.6846 7.77148 10.2395 7.77148 9.77539Z" fill="white"/>
</svg>
