<svg width="20" height="20" viewBox="0 0 20 20" fill="none" xmlns="http://www.w3.org/2000/svg">
<path d="M19.75 7.5625C19.75 7.77799 19.6644 7.98465 19.512 8.13702C19.3597 8.2894 19.153 8.375 18.9375 8.375C18.722 8.375 18.5153 8.2894 18.363 8.13702C18.2106 7.98465 18.125 7.77799 18.125 7.5625V3.02469L11.3884 9.76234C11.2359 9.9148 11.0291 10.0005 10.8135 10.0005C10.5979 10.0005 10.3911 9.9148 10.2387 9.76234C10.0862 9.60989 10.0006 9.40311 10.0006 9.1875C10.0006 8.97189 10.0862 8.76511 10.2387 8.61266L16.9753 1.875H12.4375C12.222 1.875 12.0153 1.7894 11.863 1.63702C11.7106 1.48465 11.625 1.27799 11.625 1.0625C11.625 0.847012 11.7106 0.640349 11.863 0.487976C12.0153 0.335603 12.222 0.25 12.4375 0.25H18.9375C19.153 0.25 19.3597 0.335603 19.512 0.487976C19.6644 0.640349 19.75 0.847012 19.75 1.0625V7.5625ZM15.6875 10C15.472 10 15.2653 10.0856 15.113 10.238C14.9606 10.3903 14.875 10.597 14.875 10.8125V18.125H1.875V5.125H9.1875C9.40299 5.125 9.60965 5.0394 9.76202 4.88702C9.9144 4.73465 10 4.52799 10 4.3125C10 4.09701 9.9144 3.89035 9.76202 3.73798C9.60965 3.5856 9.40299 3.5 9.1875 3.5H1.875C1.44402 3.5 1.0307 3.67121 0.725951 3.97595C0.421205 4.2807 0.25 4.69402 0.25 5.125V18.125C0.25 18.556 0.421205 18.9693 0.725951 19.274C1.0307 19.5788 1.44402 19.75 1.875 19.75H14.875C15.306 19.75 15.7193 19.5788 16.024 19.274C16.3288 18.9693 16.5 18.556 16.5 18.125V10.8125C16.5 10.597 16.4144 10.3903 16.262 10.238C16.1097 10.0856 15.903 10 15.6875 10Z" fill="#262637"/>
</svg>
