<svg width="20" height="23" viewBox="0 0 20 23" fill="none" xmlns="http://www.w3.org/2000/svg">
<path d="M19.4491 6.49938L13.3241 0.374385C13.2011 0.251279 13.0343 0.182038 12.8604 0.181885H2.36035C1.95424 0.181885 1.56476 0.343213 1.27759 0.630378C0.990429 0.917543 0.829102 1.30702 0.829102 1.71313V20.9631C0.829102 21.3692 0.990429 21.7587 1.27759 22.0459C1.56476 22.3331 1.95424 22.4944 2.36035 22.4944H18.1104C18.5165 22.4944 18.9059 22.3331 19.1931 22.0459C19.4803 21.7587 19.6416 21.3692 19.6416 20.9631V6.96313C19.6414 6.78914 19.5722 6.62234 19.4491 6.49938ZM13.5166 2.42188L17.4016 6.30688H13.5166V2.42188ZM18.1104 21.1819H2.36035C2.30234 21.1819 2.2467 21.1588 2.20567 21.1178C2.16465 21.0768 2.1416 21.0212 2.1416 20.9631V1.71313C2.1416 1.65512 2.16465 1.59948 2.20567 1.55845C2.2467 1.51743 2.30234 1.49438 2.36035 1.49438H12.2041V6.96313C12.2041 7.13718 12.2732 7.3041 12.3963 7.42717C12.5194 7.55024 12.6863 7.61938 12.8604 7.61938H18.3291V20.9631C18.3291 21.0212 18.3061 21.0768 18.265 21.1178C18.224 21.1588 18.1684 21.1819 18.1104 21.1819ZM14.3916 12.2131C14.3916 12.3872 14.3225 12.5541 14.1994 12.6772C14.0763 12.8002 13.9094 12.8694 13.7354 12.8694H6.73535C6.5613 12.8694 6.39438 12.8002 6.27131 12.6772C6.14824 12.5541 6.0791 12.3872 6.0791 12.2131C6.0791 12.0391 6.14824 11.8722 6.27131 11.7491C6.39438 11.626 6.5613 11.5569 6.73535 11.5569H13.7354C13.9094 11.5569 14.0763 11.626 14.1994 11.7491C14.3225 11.8722 14.3916 12.0391 14.3916 12.2131ZM14.3916 15.7131C14.3916 15.8872 14.3225 16.0541 14.1994 16.1772C14.0763 16.3002 13.9094 16.3694 13.7354 16.3694H6.73535C6.5613 16.3694 6.39438 16.3002 6.27131 16.1772C6.14824 16.0541 6.0791 15.8872 6.0791 15.7131C6.0791 15.5391 6.14824 15.3722 6.27131 15.2491C6.39438 15.126 6.5613 15.0569 6.73535 15.0569H13.7354C13.9094 15.0569 14.0763 15.126 14.1994 15.2491C14.3225 15.3722 14.3916 15.5391 14.3916 15.7131Z" fill="#0475DD"/>
</svg>
