<svg width="22" height="22" viewBox="0 0 22 22" fill="none" xmlns="http://www.w3.org/2000/svg">
<path d="M3.56257 8.84422V1.375C3.56257 1.25897 3.51648 1.14769 3.43443 1.06564C3.35238 0.983594 3.2411 0.9375 3.12507 0.9375C3.00904 0.9375 2.89776 0.983594 2.81571 1.06564C2.73366 1.14769 2.68757 1.25897 2.68757 1.375V8.84422C1.95914 8.94988 1.29313 9.31436 0.811462 9.87094C0.329795 10.4275 0.0646973 11.1389 0.0646973 11.875C0.0646973 12.6111 0.329795 13.3225 0.811462 13.8791C1.29313 14.4356 1.95914 14.8001 2.68757 14.9058V20.625C2.68757 20.741 2.73366 20.8523 2.81571 20.9344C2.89776 21.0164 3.00904 21.0625 3.12507 21.0625C3.2411 21.0625 3.35238 21.0164 3.43443 20.9344C3.51648 20.8523 3.56257 20.741 3.56257 20.625V14.9058C4.291 14.8001 4.95701 14.4356 5.43868 13.8791C5.92035 13.3225 6.18544 12.6111 6.18544 11.875C6.18544 11.1389 5.92035 10.4275 5.43868 9.87094C4.95701 9.31436 4.291 8.94988 3.56257 8.84422ZM3.12507 14.0625C2.69242 14.0625 2.26949 13.9342 1.90976 13.6938C1.55003 13.4535 1.26965 13.1118 1.10408 12.7121C0.938518 12.3124 0.895198 11.8726 0.979603 11.4482C1.06401 11.0239 1.27235 10.6341 1.57827 10.3282C1.8842 10.0223 2.27398 9.81394 2.69831 9.72953C3.12264 9.64513 3.56248 9.68845 3.96219 9.85401C4.3619 10.0196 4.70355 10.3 4.94391 10.6597C5.18428 11.0194 5.31257 11.4424 5.31257 11.875C5.31257 12.4552 5.0821 13.0116 4.67187 13.4218C4.26163 13.832 3.70523 14.0625 3.12507 14.0625ZM11.4376 3.59422V1.375C11.4376 1.25897 11.3915 1.14769 11.3094 1.06564C11.2274 0.983594 11.1161 0.9375 11.0001 0.9375C10.884 0.9375 10.7728 0.983594 10.6907 1.06564C10.6087 1.14769 10.5626 1.25897 10.5626 1.375V3.59422C9.83414 3.69988 9.16813 4.06436 8.68646 4.62094C8.20479 5.17751 7.9397 5.88894 7.9397 6.625C7.9397 7.36106 8.20479 8.07249 8.68646 8.62906C9.16813 9.18564 9.83414 9.55012 10.5626 9.65578V20.625C10.5626 20.741 10.6087 20.8523 10.6907 20.9344C10.7728 21.0164 10.884 21.0625 11.0001 21.0625C11.1161 21.0625 11.2274 21.0164 11.3094 20.9344C11.3915 20.8523 11.4376 20.741 11.4376 20.625V9.65578C12.166 9.55012 12.832 9.18564 13.3137 8.62906C13.7953 8.07249 14.0604 7.36106 14.0604 6.625C14.0604 5.88894 13.7953 5.17751 13.3137 4.62094C12.832 4.06436 12.166 3.69988 11.4376 3.59422ZM11.0001 8.8125C10.5674 8.8125 10.1445 8.68421 9.78476 8.44384C9.42503 8.20347 9.14465 7.86183 8.97908 7.46212C8.81352 7.06241 8.7702 6.62257 8.8546 6.19824C8.93901 5.77391 9.14735 5.38413 9.45327 5.0782C9.7592 4.77228 10.149 4.56394 10.5733 4.47953C10.9976 4.39513 11.4375 4.43845 11.8372 4.60401C12.2369 4.76958 12.5785 5.04996 12.8189 5.40969C13.0593 5.76942 13.1876 6.19235 13.1876 6.625C13.1876 7.20516 12.9571 7.76156 12.5469 8.1718C12.1366 8.58203 11.5802 8.8125 11.0001 8.8125ZM21.9376 15.375C21.9375 14.6386 21.6721 13.9269 21.19 13.3703C20.7079 12.8137 20.0414 12.4494 19.3126 12.3442V1.375C19.3126 1.25897 19.2665 1.14769 19.1844 1.06564C19.1024 0.983594 18.9911 0.9375 18.8751 0.9375C18.759 0.9375 18.6478 0.983594 18.5657 1.06564C18.4837 1.14769 18.4376 1.25897 18.4376 1.375V12.3442C17.7091 12.4499 17.0431 12.8144 16.5615 13.3709C16.0798 13.9275 15.8147 14.6389 15.8147 15.375C15.8147 16.1111 16.0798 16.8225 16.5615 17.3791C17.0431 17.9356 17.7091 18.3001 18.4376 18.4058V20.625C18.4376 20.741 18.4837 20.8523 18.5657 20.9344C18.6478 21.0164 18.759 21.0625 18.8751 21.0625C18.9911 21.0625 19.1024 21.0164 19.1844 20.9344C19.2665 20.8523 19.3126 20.741 19.3126 20.625V18.4058C20.0414 18.3006 20.7079 17.9363 21.19 17.3797C21.6721 16.8231 21.9375 16.1114 21.9376 15.375ZM18.8751 17.5625C18.4424 17.5625 18.0195 17.4342 17.6598 17.1938C17.3 16.9535 17.0197 16.6118 16.8541 16.2121C16.6885 15.8124 16.6452 15.3726 16.7296 14.9482C16.814 14.5239 17.0223 14.1341 17.3283 13.8282C17.6342 13.5223 18.024 13.3139 18.4483 13.2295C18.8726 13.1451 19.3125 13.1884 19.7122 13.354C20.1119 13.5196 20.4535 13.8 20.6939 14.1597C20.9343 14.5194 21.0626 14.9424 21.0626 15.375C21.0626 15.9552 20.8321 16.5116 20.4219 16.9218C20.0116 17.332 19.4552 17.5625 18.8751 17.5625Z" fill="#454545"/>
</svg>
