<svg width="22" height="24" viewBox="0 0 22 24" fill="none" xmlns="http://www.w3.org/2000/svg">
<path d="M19.7565 15.4665L21.0587 16.2476C21.139 16.2957 21.2055 16.3637 21.2517 16.4452C21.2978 16.5267 21.3221 16.6187 21.3221 16.7123C21.3221 16.8059 21.2978 16.898 21.2517 16.9794C21.2055 17.0609 21.139 17.129 21.0587 17.1771L11.5578 22.8776C11.3893 22.9788 11.1965 23.0323 10.9999 23.0323C10.8034 23.0323 10.6105 22.9788 10.442 22.8776L0.941174 17.1771C0.860841 17.129 0.794345 17.0609 0.748174 16.9794C0.702004 16.898 0.677734 16.8059 0.677734 16.7123C0.677734 16.6187 0.702004 16.5267 0.748174 16.4452C0.794345 16.3637 0.860841 16.2957 0.941174 16.2476L2.24334 15.4665L10.9999 20.7206L19.7565 15.4665ZM19.7565 10.3748L21.0587 11.1559C21.139 11.204 21.2055 11.2721 21.2517 11.3535C21.2978 11.435 21.3221 11.527 21.3221 11.6206C21.3221 11.7143 21.2978 11.8063 21.2517 11.8878C21.2055 11.9692 21.139 12.0373 21.0587 12.0854L10.9999 18.1206L0.941174 12.0854C0.860841 12.0373 0.794345 11.9692 0.748174 11.8878C0.702004 11.8063 0.677734 11.7143 0.677734 11.6206C0.677734 11.527 0.702004 11.435 0.748174 11.3535C0.794345 11.2721 0.860841 11.204 0.941174 11.1559L2.24334 10.3748L10.9999 15.629L19.7565 10.3748ZM11.5568 0.417894L21.0587 6.11839C21.139 6.16649 21.2055 6.23458 21.2517 6.31603C21.2978 6.39749 21.3221 6.48952 21.3221 6.58314C21.3221 6.67677 21.2978 6.7688 21.2517 6.85026C21.2055 6.93171 21.139 6.9998 21.0587 7.04789L10.9999 13.0831L0.941174 7.04789C0.860841 6.9998 0.794345 6.93171 0.748174 6.85026C0.702004 6.7688 0.677734 6.67677 0.677734 6.58314C0.677734 6.48952 0.702004 6.39749 0.748174 6.31603C0.794345 6.23458 0.860841 6.16649 0.941174 6.11839L10.442 0.417894C10.6105 0.316664 10.8034 0.263184 10.9999 0.263184C11.1965 0.263184 11.3893 0.316664 11.5578 0.417894H11.5568ZM10.9999 2.60948L4.37751 6.58314L10.9999 10.5568L17.6223 6.58314L10.9999 2.60948Z" fill="white"/>
</svg>
