<svg width="20" height="22" viewBox="0 0 20 22" fill="none" xmlns="http://www.w3.org/2000/svg">
<path d="M13.25 2.33341H2.41667V19.6667H17.5833V6.66675H13.25V2.33341ZM0.25 1.24141C0.25 0.647748 0.73425 0.166748 1.33225 0.166748H14.3333L19.75 5.58342V20.7425C19.751 20.8848 19.724 21.0258 19.6704 21.1577C19.6169 21.2895 19.538 21.4095 19.4381 21.5108C19.3382 21.6121 19.2193 21.6927 19.0883 21.7481C18.9572 21.8034 18.8165 21.8324 18.6743 21.8334H1.32575C1.04124 21.8314 0.768936 21.7176 0.567652 21.5165C0.366369 21.3154 0.252269 21.0433 0.25 20.7587V1.24141ZM10 6.66675V11.0001H14.3333C14.3333 11.8571 14.0792 12.6949 13.603 13.4076C13.1269 14.1202 12.4501 14.6756 11.6583 15.0036C10.8665 15.3315 9.99519 15.4174 9.15461 15.2502C8.31402 15.0829 7.5419 14.6702 6.93587 14.0642C6.32984 13.4582 5.91713 12.6861 5.74993 11.8455C5.58273 11.0049 5.66854 10.1336 5.99652 9.34179C6.3245 8.54997 6.87992 7.8732 7.59253 7.39705C8.30514 6.92089 9.14295 6.66675 10 6.66675Z" fill="white"/>
</svg>
