<svg width="28" height="20" viewBox="0 0 28 20" fill="none" xmlns="http://www.w3.org/2000/svg">
<path d="M27.0104 9.64766C27.0159 11.7314 26.3399 13.7599 25.0854 15.4238C25.0163 15.5157 24.9298 15.5931 24.8308 15.6516C24.7318 15.7101 24.6222 15.7485 24.5084 15.7646C24.3945 15.7808 24.2786 15.7744 24.1672 15.7457C24.0559 15.7171 23.9512 15.6667 23.8593 15.5977C23.7674 15.5286 23.69 15.4421 23.6315 15.3431C23.573 15.244 23.5346 15.1345 23.5184 15.0206C23.5023 14.9068 23.5087 14.7909 23.5374 14.6795C23.566 14.5681 23.6163 14.4635 23.6854 14.3716C24.7122 13.0112 25.2654 11.3521 25.2604 9.64766C25.2604 7.55908 24.4307 5.55604 22.9539 4.07919C21.477 2.60234 19.474 1.77266 17.3854 1.77266C15.2968 1.77266 13.2938 2.60234 11.8169 4.07919C10.3401 5.55604 9.5104 7.55908 9.5104 9.64766C9.5104 9.87972 9.41821 10.1023 9.25412 10.2664C9.09002 10.4305 8.86746 10.5227 8.6354 10.5227C8.40333 10.5227 8.18077 10.4305 8.01668 10.2664C7.85258 10.1023 7.7604 9.87972 7.7604 9.64766C7.75997 8.76465 7.88105 7.88578 8.12024 7.03578C8.00102 7.02266 7.88071 7.02266 7.7604 7.02266C6.36801 7.02266 5.03265 7.57578 4.04809 8.56035C3.06352 9.54492 2.5104 10.8803 2.5104 12.2727C2.5104 13.665 3.06352 15.0004 4.04809 15.985C5.03265 16.9695 6.36801 17.5227 7.7604 17.5227H10.3854C10.6175 17.5227 10.84 17.6148 11.0041 17.7789C11.1682 17.943 11.2604 18.1656 11.2604 18.3977C11.2604 18.6297 11.1682 18.8523 11.0041 19.0164C10.84 19.1805 10.6175 19.2727 10.3854 19.2727H7.7604C6.79809 19.2729 5.84607 19.0747 4.9638 18.6905C4.08153 18.3062 3.28796 17.7442 2.63265 17.0395C1.97734 16.3348 1.47437 15.5025 1.15515 14.5947C0.835931 13.6869 0.70732 12.723 0.77735 11.7633C0.847379 10.8035 1.11454 9.86849 1.56216 9.01662C2.00978 8.16475 2.62823 7.41433 3.37889 6.81221C4.12955 6.2101 4.9963 5.76922 5.925 5.51713C6.8537 5.26503 7.82441 5.20713 8.77649 5.34703C9.74599 3.40799 11.3417 1.85302 13.3052 0.934007C15.2687 0.0149914 17.4849 -0.21425 19.5949 0.283416C21.7049 0.781081 23.5851 1.9765 24.931 3.67606C26.2769 5.37561 27.0096 7.47975 27.0104 9.64766ZM19.3913 14.2786L17.3854 16.2856V9.64766C17.3854 9.4156 17.2932 9.19304 17.1291 9.02894C16.965 8.86485 16.7425 8.77266 16.5104 8.77266C16.2783 8.77266 16.0558 8.86485 15.8917 9.02894C15.7276 9.19304 15.6354 9.4156 15.6354 9.64766V16.2856L13.6295 14.2786C13.4653 14.1144 13.2426 14.0222 13.0104 14.0222C12.7782 14.0222 12.5555 14.1144 12.3913 14.2786C12.2271 14.4428 12.1349 14.6655 12.1349 14.8977C12.1349 15.1299 12.2271 15.3525 12.3913 15.5167L15.8913 19.0167C15.9726 19.0981 16.0691 19.1626 16.1753 19.2067C16.2815 19.2507 16.3954 19.2733 16.5104 19.2733C16.6254 19.2733 16.7392 19.2507 16.8455 19.2067C16.9517 19.1626 17.0482 19.0981 17.1295 19.0167L20.6295 15.5167C20.7936 15.3525 20.8859 15.1299 20.8859 14.8977C20.8859 14.6655 20.7936 14.4428 20.6295 14.2786C20.4653 14.1144 20.2426 14.0222 20.0104 14.0222C19.7782 14.0222 19.5555 14.1144 19.3913 14.2786Z" fill="white"/>
</svg>
