<svg width="23" height="18" viewBox="0 0 23 18" fill="none" xmlns="http://www.w3.org/2000/svg">
<path d="M22.1373 14.1126C22.2129 14.1881 22.2728 14.2777 22.3137 14.3763C22.3546 14.475 22.3756 14.5807 22.3756 14.6875C22.3756 14.7942 22.3546 14.9 22.3137 14.9986C22.2728 15.0972 22.2129 15.1869 22.1373 15.2623L19.6998 17.6998C19.5474 17.8523 19.3406 17.9379 19.125 17.9379C18.9094 17.9379 18.7026 17.8523 18.5502 17.6998C18.3977 17.5474 18.312 17.3406 18.312 17.125C18.312 16.9094 18.3977 16.7026 18.5502 16.5501L19.6013 15.5H18.408C17.2442 15.499 16.0974 15.2207 15.0625 14.6882C14.0277 14.1557 13.1347 13.3843 12.4574 12.4379L8.22023 6.5066C7.69343 5.77053 6.99884 5.17056 6.19399 4.75639C5.38914 4.34222 4.49719 4.12577 3.59203 4.12496H1.25C1.03451 4.12496 0.827849 4.03936 0.675476 3.88699C0.523102 3.73461 0.4375 3.52795 0.4375 3.31246C0.4375 3.09698 0.523102 2.89031 0.675476 2.73794C0.827849 2.58557 1.03451 2.49996 1.25 2.49996H3.59203C4.75583 2.50093 5.90264 2.7792 6.93746 3.31171C7.97228 3.84422 8.86531 4.61564 9.54258 5.56207L13.7798 11.4933C14.3066 12.2294 15.0012 12.8294 15.806 13.2435C16.6109 13.6577 17.5028 13.8742 18.408 13.875H19.6013L18.5502 12.8248C18.3977 12.6724 18.312 12.4656 18.312 12.25C18.312 12.0344 18.3977 11.8276 18.5502 11.6751C18.7026 11.5227 18.9094 11.437 19.125 11.437C19.3406 11.437 19.5474 11.5227 19.6998 11.6751L22.1373 14.1126ZM12.5234 6.86715C12.6103 6.92917 12.7085 6.97348 12.8124 6.99756C12.9164 7.02163 13.024 7.02499 13.1293 7.00745C13.2345 6.98991 13.3353 6.9518 13.4258 6.89532C13.5163 6.83884 13.5949 6.76507 13.6569 6.67825L13.7788 6.50864C14.3054 5.77205 15.0001 5.1716 15.8051 4.75707C16.6102 4.34253 17.5025 4.12584 18.408 4.12496H19.6013L18.5502 5.17512C18.3977 5.32758 18.312 5.53436 18.312 5.74996C18.312 5.96557 18.3977 6.17235 18.5502 6.32481C18.7026 6.47727 18.9094 6.56292 19.125 6.56292C19.3406 6.56292 19.5474 6.47727 19.6998 6.32481L22.1373 3.88731C22.2129 3.81185 22.2728 3.72224 22.3137 3.6236C22.3546 3.52497 22.3756 3.41924 22.3756 3.31246C22.3756 3.20569 22.3546 3.09996 22.3137 3.00132C22.2728 2.90269 22.2129 2.81308 22.1373 2.73762L19.6998 0.30012C19.5474 0.147662 19.3406 0.0620117 19.125 0.0620117C18.9094 0.0620117 18.7026 0.147662 18.5502 0.30012C18.3977 0.452578 18.312 0.659355 18.312 0.874964C18.312 1.09057 18.3977 1.29735 18.5502 1.44981L19.6013 2.49996H18.408C17.2442 2.50093 16.0974 2.7792 15.0625 3.31171C14.0277 3.84422 13.1347 4.61564 12.4574 5.56207L12.3355 5.73168C12.2732 5.81851 12.2285 5.91681 12.2042 6.02092C12.1799 6.12504 12.1763 6.23293 12.1938 6.33842C12.2112 6.44391 12.2493 6.54491 12.3059 6.63564C12.3625 6.72637 12.4364 6.80505 12.5234 6.86715ZM9.47656 11.1328C9.38974 11.0708 9.29155 11.0264 9.18759 11.0024C9.08364 10.9783 8.97597 10.9749 8.87072 10.9925C8.76547 11.01 8.6647 11.0481 8.57418 11.1046C8.48365 11.1611 8.40514 11.2349 8.34312 11.3217L8.22125 11.4913C7.69457 12.2279 6.99991 12.8283 6.19486 13.2429C5.3898 13.6574 4.49754 13.8741 3.59203 13.875H1.25C1.03451 13.875 0.827849 13.9606 0.675476 14.1129C0.523102 14.2653 0.4375 14.472 0.4375 14.6875C0.4375 14.903 0.523102 15.1096 0.675476 15.262C0.827849 15.4144 1.03451 15.5 1.25 15.5H3.59203C4.75583 15.499 5.90264 15.2207 6.93746 14.6882C7.97228 14.1557 8.86531 13.3843 9.54258 12.4379L9.66445 12.2682C9.72684 12.1814 9.77148 12.0831 9.7958 11.979C9.82013 11.8749 9.82367 11.767 9.80621 11.6615C9.78876 11.556 9.75065 11.455 9.69408 11.3643C9.63752 11.2736 9.5636 11.1949 9.47656 11.1328Z" fill="white"/>
</svg>
