<svg width="22" height="22" viewBox="0 0 22 22" fill="none" xmlns="http://www.w3.org/2000/svg">
<path d="M1.61809 16.4167C1.16014 15.6248 0.804147 14.7781 0.558594 13.8969C1.09301 13.6251 1.54182 13.2107 1.85538 12.6997C2.16893 12.1886 2.33501 11.6008 2.33523 11.0013C2.33545 10.4017 2.16982 9.81375 1.85665 9.30247C1.54347 8.79119 1.09497 8.37651 0.560761 8.1043C1.05047 6.33358 1.98288 4.71667 3.27018 3.40588C3.77294 3.73275 4.35635 3.91414 4.95582 3.92998C5.55529 3.94582 6.14746 3.79549 6.66678 3.49562C7.18611 3.19575 7.61234 2.75805 7.89831 2.23095C8.18429 1.70384 8.31884 1.10789 8.28709 0.509052C10.066 0.0493096 11.9328 0.0500553 13.7113 0.511219C13.6799 1.11005 13.8147 1.70591 14.1009 2.23286C14.3871 2.75981 14.8135 3.19732 15.3329 3.49695C15.8523 3.79659 16.4445 3.94667 17.044 3.9306C17.6434 3.91453 18.2267 3.73292 18.7293 3.40588C19.3566 4.04505 19.9134 4.77197 20.3814 5.58339C20.8505 6.3948 21.2015 7.24089 21.4409 8.10322C20.9065 8.37503 20.4577 8.78937 20.1441 9.30042C19.8306 9.81146 19.6645 10.3993 19.6643 10.9988C19.6641 11.5984 19.8297 12.1864 20.1429 12.6976C20.456 13.2089 20.9045 13.6236 21.4388 13.8958C20.9491 15.6665 20.0166 17.2834 18.7293 18.5942C18.2266 18.2673 17.6432 18.086 17.0437 18.0701C16.4442 18.0543 15.8521 18.2046 15.3327 18.5045C14.8134 18.8043 14.3872 19.2421 14.1012 19.7692C13.8152 20.2963 13.6807 20.8922 13.7124 21.4911C11.9335 21.9508 10.0668 21.95 8.28818 21.4889C8.31964 20.8901 8.18482 20.2942 7.89863 19.7672C7.61244 19.2403 7.18604 18.8028 6.66661 18.5032C6.14719 18.2035 5.55499 18.0534 4.95555 18.0695C4.35611 18.0856 3.7728 18.2672 3.27018 18.5942C2.62992 17.9409 2.07482 17.2093 1.61809 16.4167ZM7.74976 16.629C8.90419 17.2949 9.77218 18.3635 10.1873 19.6299C10.7278 19.6808 11.2706 19.6819 11.8112 19.631C12.2265 18.3644 13.0949 17.2958 14.2498 16.6301C15.4037 15.9625 16.7637 15.7445 18.0685 16.0181C18.3827 15.5761 18.6535 15.1048 18.8788 14.6119C17.9899 13.6189 17.4988 12.3328 17.4998 11.0001C17.4998 9.63505 18.0089 8.35997 18.8788 7.38822C18.6519 6.89546 18.3799 6.42474 18.0663 5.98205C16.7623 6.25539 15.4033 6.03782 14.2498 5.37105C13.0953 4.7052 12.2273 3.63662 11.8123 2.37022C11.2717 2.3193 10.7289 2.31822 10.1883 2.36914C9.77299 3.63571 8.9046 4.70432 7.74976 5.36997C6.59578 6.03764 5.23586 6.25561 3.93101 5.98205C3.61746 6.42436 3.34615 6.89515 3.12068 7.38822C4.00963 8.38116 4.50072 9.66732 4.49976 11.0001C4.49976 12.3651 3.99059 13.6401 3.12068 14.6119C3.3476 15.1046 3.61959 15.5754 3.93318 16.0181C5.2372 15.7447 6.59624 15.9623 7.74976 16.629ZM10.9998 14.2501C10.1378 14.2501 9.31116 13.9076 8.70166 13.2981C8.09217 12.6887 7.74976 11.862 7.74976 11.0001C7.74976 10.1381 8.09217 9.31145 8.70166 8.70195C9.31116 8.09246 10.1378 7.75005 10.9998 7.75005C11.8617 7.75005 12.6884 8.09246 13.2979 8.70195C13.9074 9.31145 14.2498 10.1381 14.2498 11.0001C14.2498 11.862 13.9074 12.6887 13.2979 13.2981C12.6884 13.9076 11.8617 14.2501 10.9998 14.2501ZM10.9998 12.0834C11.2871 12.0834 11.5626 11.9692 11.7658 11.7661C11.969 11.5629 12.0831 11.2874 12.0831 11.0001C12.0831 10.7127 11.969 10.4372 11.7658 10.234C11.5626 10.0309 11.2871 9.91672 10.9998 9.91672C10.7124 9.91672 10.4369 10.0309 10.2337 10.234C10.0306 10.4372 9.91643 10.7127 9.91643 11.0001C9.91643 11.2874 10.0306 11.5629 10.2337 11.7661C10.4369 11.9692 10.7124 12.0834 10.9998 12.0834Z" fill="white"/>
</svg>
