<svg width="22" height="22" viewBox="0 0 22 22" fill="none" xmlns="http://www.w3.org/2000/svg">
<path d="M11.0003 9.9165C12.4369 9.9165 13.8147 10.4872 14.8305 11.503C15.8463 12.5188 16.417 13.8966 16.417 15.3332V21.8332H14.2503V15.3332C14.2504 14.5042 13.9336 13.7065 13.3649 13.1034C12.7962 12.5002 12.0185 12.1372 11.191 12.0886L11.0003 12.0832C10.1713 12.0831 9.37368 12.3999 8.77054 12.9686C8.1674 13.5373 7.80438 14.315 7.75574 15.1425L7.75033 15.3332V21.8332H5.58366V15.3332C5.58366 13.8966 6.15434 12.5188 7.17016 11.503C8.18599 10.4872 9.56374 9.9165 11.0003 9.9165ZM3.95866 13.1665C4.26091 13.1665 4.55449 13.2023 4.83616 13.2683C4.65093 13.8198 4.54124 14.3937 4.51008 14.9746L4.50033 15.3332V15.4263C4.3758 15.3818 4.24628 15.3527 4.11466 15.3397L3.95866 15.3332C3.5547 15.3332 3.16524 15.4837 2.8662 15.7553C2.56717 16.0268 2.38002 16.4001 2.34124 16.8022L2.33366 16.9582V21.8332H0.166992V16.9582C0.166992 15.9526 0.56647 14.9881 1.27755 14.2771C1.98862 13.566 2.95305 13.1665 3.95866 13.1665ZM18.042 13.1665C19.0476 13.1665 20.012 13.566 20.7231 14.2771C21.4342 14.9881 21.8337 15.9526 21.8337 16.9582V21.8332H19.667V16.9582C19.667 16.5542 19.5165 16.1647 19.2449 15.8657C18.9733 15.5667 18.6001 15.3795 18.198 15.3408L18.042 15.3332C17.8524 15.3332 17.6704 15.3657 17.5003 15.4253V15.3332C17.5003 14.6117 17.3833 13.9183 17.1656 13.2705C17.4462 13.2023 17.7397 13.1665 18.042 13.1665ZM3.95866 6.6665C4.67695 6.6665 5.36583 6.95185 5.87374 7.45976C6.38165 7.96767 6.66699 8.65654 6.66699 9.37484C6.66699 10.0931 6.38165 10.782 5.87374 11.2899C5.36583 11.7978 4.67695 12.0832 3.95866 12.0832C3.24036 12.0832 2.55149 11.7978 2.04358 11.2899C1.53567 10.782 1.25033 10.0931 1.25033 9.37484C1.25033 8.65654 1.53567 7.96767 2.04358 7.45976C2.55149 6.95185 3.24036 6.6665 3.95866 6.6665ZM18.042 6.6665C18.7603 6.6665 19.4492 6.95185 19.9571 7.45976C20.465 7.96767 20.7503 8.65654 20.7503 9.37484C20.7503 10.0931 20.465 10.782 19.9571 11.2899C19.4492 11.7978 18.7603 12.0832 18.042 12.0832C17.3237 12.0832 16.6348 11.7978 16.1269 11.2899C15.619 10.782 15.3337 10.0931 15.3337 9.37484C15.3337 8.65654 15.619 7.96767 16.1269 7.45976C16.6348 6.95185 17.3237 6.6665 18.042 6.6665ZM3.95866 8.83317C3.815 8.83317 3.67723 8.89024 3.57564 8.99182C3.47406 9.0934 3.41699 9.23118 3.41699 9.37484C3.41699 9.5185 3.47406 9.65627 3.57564 9.75785C3.67723 9.85944 3.815 9.9165 3.95866 9.9165C4.10232 9.9165 4.24009 9.85944 4.34168 9.75785C4.44326 9.65627 4.50033 9.5185 4.50033 9.37484C4.50033 9.23118 4.44326 9.0934 4.34168 8.99182C4.24009 8.89024 4.10232 8.83317 3.95866 8.83317ZM18.042 8.83317C17.8983 8.83317 17.7606 8.89024 17.659 8.99182C17.5574 9.0934 17.5003 9.23118 17.5003 9.37484C17.5003 9.5185 17.5574 9.65627 17.659 9.75785C17.7606 9.85944 17.8983 9.9165 18.042 9.9165C18.1857 9.9165 18.3234 9.85944 18.425 9.75785C18.5266 9.65627 18.5837 9.5185 18.5837 9.37484C18.5837 9.23118 18.5266 9.0934 18.425 8.99182C18.3234 8.89024 18.1857 8.83317 18.042 8.83317ZM11.0003 0.166504C12.1496 0.166504 13.2518 0.62305 14.0645 1.43571C14.8771 2.24837 15.3337 3.35057 15.3337 4.49984C15.3337 5.64911 14.8771 6.75131 14.0645 7.56397C13.2518 8.37663 12.1496 8.83317 11.0003 8.83317C9.85105 8.83317 8.74885 8.37663 7.9362 7.56397C7.12354 6.75131 6.66699 5.64911 6.66699 4.49984C6.66699 3.35057 7.12354 2.24837 7.9362 1.43571C8.74885 0.62305 9.85105 0.166504 11.0003 0.166504ZM11.0003 2.33317C10.4257 2.33317 9.87459 2.56144 9.46826 2.96777C9.06193 3.3741 8.83366 3.9252 8.83366 4.49984C8.83366 5.07447 9.06193 5.62557 9.46826 6.0319C9.87459 6.43823 10.4257 6.6665 11.0003 6.6665C11.575 6.6665 12.1261 6.43823 12.5324 6.0319C12.9387 5.62557 13.167 5.07447 13.167 4.49984C13.167 3.9252 12.9387 3.3741 12.5324 2.96777C12.1261 2.56144 11.575 2.33317 11.0003 2.33317Z" fill="white"/>
</svg>
